<svg width="30" height="30" viewBox="0 0 30 30" fill="none" xmlns="http://www.w3.org/2000/svg">
<path d="M16.25 15.2188L19.0625 18.0313C19.2917 18.2604 19.4062 18.5471 19.4062 18.8912C19.4062 19.2354 19.2917 19.5321 19.0625 19.7812C18.8125 20.0312 18.5154 20.1562 18.1712 20.1562C17.8271 20.1562 17.5304 20.0312 17.2812 19.7812L14.625 17.125C14.3333 16.8333 14.1146 16.5104 13.9688 16.1563C13.8229 15.8021 13.75 15.4167 13.75 15V11.25C13.75 10.8958 13.87 10.5987 14.11 10.3587C14.35 10.1187 14.6467 9.99917 15 10C15.3542 10 15.6513 10.12 15.8913 10.36C16.1313 10.6 16.2508 10.8967 16.25 11.25V15.2188ZM15 5C15.3542 5 15.6513 5.12 15.8913 5.36C16.1313 5.6 16.2508 5.89667 16.25 6.25C16.25 6.60417 16.13 6.90125 15.89 7.14125C15.65 7.38125 15.3533 7.50083 15 7.5C14.6458 7.5 14.3487 7.38 14.1087 7.14C13.8687 6.9 13.7492 6.60333 13.75 6.25C13.75 5.89583 13.87 5.59875 14.11 5.35875C14.35 5.11875 14.6467 4.99917 15 5ZM25 15C25 15.3542 24.88 15.6513 24.64 15.8913C24.4 16.1313 24.1033 16.2508 23.75 16.25C23.3958 16.25 23.0988 16.13 22.8588 15.89C22.6188 15.65 22.4992 15.3533 22.5 15C22.5 14.6458 22.62 14.3487 22.86 14.1087C23.1 13.8687 23.3967 13.7492 23.75 13.75C24.1042 13.75 24.4012 13.87 24.6412 14.11C24.8812 14.35 25.0008 14.6467 25 15ZM15 22.5C15.3542 22.5 15.6513 22.62 15.8913 22.86C16.1313 23.1 16.2508 23.3967 16.25 23.75C16.25 24.1042 16.13 24.4012 15.89 24.6412C15.65 24.8812 15.3533 25.0008 15 25C14.6458 25 14.3487 24.88 14.1087 24.64C13.8687 24.4 13.7492 24.1033 13.75 23.75C13.75 23.3958 13.87 23.0988 14.11 22.8588C14.35 22.6188 14.6467 22.4992 15 22.5ZM7.5 15C7.5 15.3542 7.38 15.6513 7.14 15.8913C6.9 16.1313 6.60333 16.2508 6.25 16.25C5.89583 16.25 5.59875 16.13 5.35875 15.89C5.11875 15.65 4.99917 15.3533 5 15C5 14.6458 5.12 14.3487 5.36 14.1087C5.6 13.8687 5.89667 13.7492 6.25 13.75C6.60417 13.75 6.90125 13.87 7.14125 14.11C7.38125 14.35 7.50083 14.6467 7.5 15ZM15 27.5C13.2708 27.5 11.6458 27.1717 10.125 26.515C8.60417 25.8583 7.28125 24.9679 6.15625 23.8438C5.03125 22.7188 4.14083 21.3958 3.485 19.875C2.82917 18.3542 2.50083 16.7292 2.5 15C2.5 13.2708 2.82833 11.6458 3.485 10.125C4.14167 8.60417 5.03208 7.28125 6.15625 6.15625C7.28125 5.03125 8.60417 4.14083 10.125 3.485C11.6458 2.82917 13.2708 2.50083 15 2.5C16.7292 2.5 18.3542 2.82833 19.875 3.485C21.3958 4.14167 22.7188 5.03208 23.8438 6.15625C24.9688 7.28125 25.8596 8.60417 26.5162 10.125C27.1729 11.6458 27.5008 13.2708 27.5 15C27.5 16.7292 27.1717 18.3542 26.515 19.875C25.8583 21.3958 24.9679 22.7188 23.8438 23.8438C22.7188 24.9688 21.3958 25.8596 19.875 26.5162C18.3542 27.1729 16.7292 27.5008 15 27.5ZM15 25C17.7917 25 20.1562 24.0312 22.0937 22.0937C24.0312 20.1562 25 17.7917 25 15C25 12.2083 24.0312 9.84375 22.0937 7.90625C20.1562 5.96875 17.7917 5 15 5C12.2083 5 9.84375 5.96875 7.90625 7.90625C5.96875 9.84375 5 12.2083 5 15C5 17.7917 5.96875 20.1562 7.90625 22.0937C9.84375 24.0312 12.2083 25 15 25Z" fill="#FAFAFA"/>
</svg>
