<svg width="27" height="27" viewBox="0 0 27 27" fill="none" xmlns="http://www.w3.org/2000/svg">
<g clip-path="url(#clip0_291_8)">
<path d="M13.5 24.4053C14.7426 24.4053 15.75 23.3979 15.75 22.1553C15.75 20.9126 14.7426 19.9053 13.5 19.9053C12.2574 19.9053 11.25 20.9126 11.25 22.1553C11.25 23.3979 12.2574 24.4053 13.5 24.4053Z" fill="#ED9093"/>
<path d="M21.8852 13.2823L21.9677 13.1548C22.0491 13.0286 22.1046 12.8875 22.131 12.7396C22.1573 12.5917 22.154 12.4401 22.1212 12.2935C22.0884 12.147 22.0268 12.0084 21.9399 11.8859C21.853 11.7633 21.7427 11.6593 21.6152 11.5798C19.1766 10.0734 16.3666 9.27607 13.5002 9.27735C13.0802 9.27735 12.6677 9.27735 12.2627 9.32985L14.6702 11.7373C16.6912 11.9159 18.6428 12.5631 20.3702 13.6273C20.6181 13.7776 20.9148 13.8256 21.1975 13.7612C21.4801 13.6969 21.7268 13.5251 21.8852 13.2823Z" fill="#ED9093"/>
<path d="M24.5698 7.03545C22.0702 5.47649 19.2696 4.46288 16.3513 4.06093C13.433 3.65898 10.4627 3.87776 7.63477 4.70295L9.60727 6.67545C14.3198 5.66377 19.2411 6.53018 23.3248 9.09045C23.5714 9.23613 23.8645 9.28156 24.1436 9.21736C24.4228 9.15316 24.6666 8.98423 24.8248 8.74545L24.9073 8.61795C24.9906 8.49237 25.0479 8.35142 25.0761 8.20338C25.1042 8.05533 25.1025 7.90316 25.0711 7.75578C25.0396 7.6084 24.9791 7.46877 24.893 7.34508C24.8069 7.22139 24.697 7.11613 24.5698 7.03545Z" fill="#ED9093"/>
<path d="M2.24997 3.56238L4.57497 5.88738C3.82177 6.23512 3.09042 6.62835 2.38497 7.06488C2.25586 7.14374 2.14387 7.24765 2.05559 7.3705C1.96731 7.49335 1.90454 7.63265 1.87099 7.78016C1.83743 7.92767 1.83377 8.0804 1.86021 8.22935C1.88666 8.3783 1.94268 8.52044 2.02497 8.64738L2.10747 8.77488C2.26565 9.01366 2.50947 9.18259 2.7886 9.24679C3.06774 9.31099 3.36086 9.26556 3.60747 9.11988C4.48353 8.5688 5.40426 8.09213 6.35997 7.69488L8.71497 10.0499C7.52323 10.433 6.38239 10.9594 5.31747 11.6174C5.19062 11.6974 5.08093 11.8019 4.99479 11.9247C4.90865 12.0475 4.84776 12.1862 4.81566 12.3327C4.78357 12.4793 4.7809 12.6307 4.80782 12.7783C4.83474 12.9259 4.8907 13.0666 4.97247 13.1924L5.05497 13.3199C5.21315 13.5587 5.45697 13.7276 5.7361 13.7918C6.01524 13.856 6.30836 13.8106 6.55497 13.6649C7.82725 12.8779 9.22497 12.3148 10.6875 11.9999L13.3875 14.6999C11.5911 14.7182 9.83244 15.2181 8.29497 16.1474C8.16837 16.2267 8.05884 16.3305 7.97279 16.4527C7.88673 16.5748 7.82587 16.7129 7.79375 16.8588C7.76164 17.0047 7.75891 17.1556 7.78573 17.3025C7.81255 17.4495 7.86838 17.5897 7.94997 17.7149L8.02497 17.8349C8.19 18.0788 8.44303 18.2494 8.73103 18.3109C9.01904 18.3724 9.31968 18.3201 9.56997 18.1649C10.5794 17.5653 11.7132 17.206 12.8837 17.115C14.0542 17.024 15.23 17.2036 16.32 17.6399L21.75 23.0624L22.8075 22.0049L3.30747 2.50488L2.24997 3.56238Z" fill="#ED9093"/>
</g>
<defs>
<clipPath id="clip0_291_8">
<rect width="27" height="27" fill="white"/>
</clipPath>
</defs>
</svg>
