<svg width="100" height="100" viewBox="0 0 100 100" fill="none" xmlns="http://www.w3.org/2000/svg">
<circle cx="50" cy="50" r="50" fill="#211E1A"/>
<path d="M50.0006 26.6953C51.8549 26.6953 53.6332 27.4319 54.9444 28.7431C56.2556 30.0542 56.9922 31.8326 56.9922 33.6868C56.9922 35.5411 56.2556 37.3194 54.9444 38.6306C53.6332 39.9418 51.8549 40.6784 50.0006 40.6784C48.1464 40.6784 46.368 39.9418 45.0569 38.6306C43.7457 37.3194 43.0091 35.5411 43.0091 33.6868C43.0091 31.8326 43.7457 30.0542 45.0569 28.7431C46.368 27.4319 48.1464 26.6953 50.0006 26.6953ZM47.6701 73.3055H40.6786V59.3224H36.0176V43.0089H63.9837V59.3224H59.3227V73.3055H52.3311V63.9834H47.6701V73.3055Z" fill="#FAFAFA"/>
</svg>
