<svg width="150" height="150" viewBox="0 0 150 150" fill="none" xmlns="http://www.w3.org/2000/svg">
<circle cx="75" cy="75" r="75" fill="#5E544B"/>
<circle cx="75" cy="75" r="75" fill="#5E544B"/>
<path d="M72.4597 33.2646C75.5783 33.2646 78.5691 34.5035 80.7742 36.7086C82.9794 38.9138 84.2182 41.9046 84.2182 45.0231C84.2182 48.1417 82.9794 51.1325 80.7742 53.3376C78.5691 55.5428 75.5783 56.7816 72.4597 56.7816C69.3412 56.7816 66.3504 55.5428 64.1452 53.3376C61.9401 51.1325 60.7012 48.1417 60.7012 45.0231C60.7012 41.9046 61.9401 38.9138 64.1452 36.7086C66.3504 34.5035 69.3412 33.2646 72.4597 33.2646ZM103.816 95.9765L95.9767 74.6545C94.6048 70.7742 93.3898 67.4034 88.1377 64.6206C82.7288 61.8769 78.8093 60.7011 72.4597 60.7011C66.0709 60.7011 62.1906 61.8769 56.7817 64.6206C51.5296 67.4034 50.3146 70.7742 48.9428 74.6545L41.1038 95.9765C39.8495 101.268 50.3538 105.54 57.2129 108.48V99.896C57.2129 96.1725 60.5837 93.5464 67.3252 91.9394C67.9523 91.7827 68.5402 91.7043 69.0106 91.6259C66.894 88.4119 66.0317 85.5507 65.9534 85.3155L72.8909 82.9638C72.9301 83.0422 74.929 89.1958 79.6716 92.2922C80.4947 92.5666 81.3178 92.8801 82.1017 93.2329C85.1197 94.5655 86.9226 96.2901 87.5106 98.3674C82.2584 100.445 77.2415 101.503 72.4597 101.503L68.5402 101.111V111.419L72.4597 111.654C77.8294 111.654 82.9248 110.557 87.7065 108.48C94.5656 105.54 104.796 100.406 103.816 95.9765ZM86.1779 92.057C84.6187 92.057 83.1233 91.4376 82.0207 90.335C80.9181 89.2325 80.2987 87.7371 80.2987 86.1778C80.2987 84.6185 80.9181 83.1231 82.0207 82.0205C83.1233 80.918 84.6187 80.2985 86.1779 80.2985C87.7372 80.2985 89.2326 80.918 90.3352 82.0205C91.4378 83.1231 92.0572 84.6185 92.0572 86.1778C92.0572 87.7371 91.4378 89.2325 90.3352 90.335C89.2326 91.4376 87.7372 92.057 86.1779 92.057Z" fill="#FAFAFA"/>
</svg>
