<svg width="100" height="100" viewBox="0 0 100 100" fill="none" xmlns="http://www.w3.org/2000/svg">
<circle cx="50" cy="50" r="50" fill="#B09F8F"/>
<path d="M44.7736 77.8234V62.1454H36.9346L46.276 38.6285H53.7884L63.0645 62.1454H55.2255V77.8234H44.7736ZM49.9995 36.0155C48.5624 36.0155 47.3317 35.5033 46.3074 34.479C45.2831 33.4547 44.7718 32.2249 44.7736 30.7895C44.7736 29.3523 45.2857 28.1216 46.31 27.0973C47.3343 26.073 48.5641 25.5617 49.9995 25.5635C51.4367 25.5635 52.6674 26.0756 53.6917 27.0999C54.716 28.1242 55.2273 29.3541 55.2255 30.7895C55.2255 32.2266 54.7134 33.4573 53.6891 34.4816C52.6648 35.5059 51.4349 36.0172 49.9995 36.0155Z" fill="#FAFAFA"/>
</svg>
