<svg width="150" height="150" viewBox="0 0 150 150" fill="none" xmlns="http://www.w3.org/2000/svg">
<circle cx="75" cy="75" r="75" fill="#B09F8F"/>
<path d="M67.1608 116.736V93.2186H55.4023L69.4145 57.9432H80.6831L94.5973 93.2186H82.8388V116.736H67.1608ZM74.9998 54.0237C72.8441 54.0237 70.998 53.2555 69.4616 51.719C67.9251 50.1826 67.1582 48.3378 67.1608 46.1847C67.1608 44.029 67.929 42.1829 69.4655 40.6465C71.0019 39.11 72.8467 38.3431 74.9998 38.3457C77.1555 38.3457 79.0016 39.1139 80.538 40.6504C82.0745 42.1868 82.8414 44.0316 82.8388 46.1847C82.8388 48.3404 82.0706 50.1865 80.5341 51.7229C78.9977 53.2594 77.1529 54.0263 74.9998 54.0237Z" fill="#FAFAFA"/>
</svg>
