<svg width="35" height="35" viewBox="0 0 35 35" fill="none" xmlns="http://www.w3.org/2000/svg">
<circle cx="17.5" cy="17.5" r="17.5" fill="#3C352F"/>
<path d="M13.0875 6.52539C13.6513 6.52539 14.192 6.74935 14.5906 7.148C14.9893 7.54664 15.2132 8.08732 15.2132 8.6511C15.2132 9.21487 14.9893 9.75555 14.5906 10.1542C14.192 10.5528 13.6513 10.7768 13.0875 10.7768C12.5238 10.7768 11.9831 10.5528 11.5844 10.1542C11.1858 9.75555 10.9618 9.21487 10.9618 8.6511C10.9618 8.08732 11.1858 7.54664 11.5844 7.148C11.9831 6.74935 12.5238 6.52539 13.0875 6.52539ZM11.4932 27.7825V21.4053H8.30469L11.0681 13.3277C11.387 12.4774 12.131 11.8397 13.0875 11.8397C14.0441 11.8397 14.8944 12.4774 15.1069 13.3277L17.8704 21.4053H14.6818V27.7825H11.4932ZM20.5275 17.1539C20.5275 16.5901 20.7515 16.0495 21.1501 15.6508C21.5488 15.2522 22.0894 15.0282 22.6532 15.0282C23.217 15.0282 23.7577 15.2522 24.1563 15.6508C24.555 16.0495 24.7789 16.5901 24.7789 17.1539C24.7789 17.7177 24.555 18.2584 24.1563 18.657C23.7577 19.0557 23.217 19.2796 22.6532 19.2796C22.0894 19.2796 21.5488 19.0557 21.1501 18.657C20.7515 18.2584 20.5275 17.7177 20.5275 17.1539ZM19.4646 20.3425H25.8418V24.5939H24.2475V27.7825H21.0589V24.5939H19.4646V20.3425Z" fill="#FAFAFA"/>
</svg>
