<svg width="100" height="100" viewBox="0 0 100 100" fill="none" xmlns="http://www.w3.org/2000/svg">
<circle cx="50" cy="50" r="50" fill="#5E544B"/>
<circle cx="50" cy="50" r="50" fill="#5E544B"/>
<path d="M48.3065 22.1758C50.3855 22.1758 52.3794 23.0017 53.8495 24.4718C55.3196 25.9419 56.1455 27.9357 56.1455 30.0148C56.1455 32.0938 55.3196 34.0877 53.8495 35.5578C52.3794 37.0279 50.3855 37.8537 48.3065 37.8537C46.2274 37.8537 44.2336 37.0279 42.7635 35.5578C41.2934 34.0877 40.4675 32.0938 40.4675 30.0148C40.4675 27.9357 41.2934 25.9419 42.7635 24.4718C44.2336 23.0017 46.2274 22.1758 48.3065 22.1758ZM69.2104 63.9837L63.9844 49.769C63.0699 47.1821 62.2599 44.935 58.7585 43.0797C55.1525 41.2506 52.5395 40.4667 48.3065 40.4667C44.0473 40.4667 41.4604 41.2506 37.8545 43.0797C34.3531 44.935 33.5431 47.1821 32.6285 49.769L27.4025 63.9837C26.5664 67.5112 33.5692 70.3594 38.1419 72.3191V66.5967C38.1419 64.1143 40.3891 62.3636 44.8835 61.2923C45.3015 61.1878 45.6935 61.1355 46.007 61.0833C44.596 58.9406 44.0212 57.0331 43.9689 56.8763L48.5939 55.3086C48.62 55.3608 49.9527 59.4632 53.1144 61.5275C53.6631 61.7104 54.2118 61.9194 54.7344 62.1546C56.7464 63.043 57.9484 64.1927 58.3404 65.5776C54.839 66.9625 51.4943 67.668 48.3065 67.668L45.6935 67.4067V74.2789L48.3065 74.4357C51.8863 74.4357 55.2832 73.704 58.471 72.3191C63.0438 70.3594 69.8637 66.9364 69.2104 63.9837ZM57.452 61.3707C56.4124 61.3707 55.4155 60.9578 54.6805 60.2227C53.9454 59.4877 53.5325 58.4907 53.5325 57.4512C53.5325 56.4117 53.9454 55.4148 54.6805 54.6797C55.4155 53.9447 56.4124 53.5317 57.452 53.5317C58.4915 53.5317 59.4884 53.9447 60.2235 54.6797C60.9585 55.4148 61.3714 56.4117 61.3714 57.4512C61.3714 58.4907 60.9585 59.4877 60.2235 60.2227C59.4884 60.9578 58.4915 61.3707 57.452 61.3707Z" fill="#FAFAFA"/>
</svg>
