<svg width="150" height="150" viewBox="0 0 150 150" fill="none" xmlns="http://www.w3.org/2000/svg">
<circle cx="75" cy="75" r="75" fill="#211E1A"/>
<path d="M75 40.042C77.7814 40.042 80.4489 41.1469 82.4156 43.1136C84.3823 45.0804 85.4873 47.7479 85.4873 50.5293C85.4873 53.3107 84.3823 55.9782 82.4156 57.9449C80.4489 59.9117 77.7814 61.0166 75 61.0166C72.2186 61.0166 69.5511 59.9117 67.5843 57.9449C65.6176 55.9782 64.5127 53.3107 64.5127 50.5293C64.5127 47.7479 65.6176 45.0804 67.5843 43.1136C69.5511 41.1469 72.2186 40.042 75 40.042ZM71.5042 109.957H61.0169V88.9827H54.0254V64.5123H95.9745V88.9827H88.983V109.957H78.4957V95.9742H71.5042V109.957Z" fill="#FAFAFA"/>
</svg>
