<svg width="35" height="35" viewBox="0 0 35 35" fill="none" xmlns="http://www.w3.org/2000/svg">
<circle cx="17.5" cy="17.5" r="17.5" fill="#8E8174"/>
<path d="M14.8305 9.29381C14.8305 8.19635 15.7104 7.31641 16.8079 7.31641C17.9054 7.31641 18.7853 8.19635 18.7853 9.29381C18.7853 10.3913 17.9054 11.2712 16.8079 11.2712C15.7104 11.2712 14.8305 10.3913 14.8305 9.29381ZM21.7514 18.1921C21.7469 17.5588 21.5573 16.9405 21.206 16.4135C20.8547 15.8865 20.3569 15.4738 19.774 15.226C19.774 13.5848 18.4491 12.2599 16.8079 12.2599C15.1667 12.2599 13.8418 13.5848 13.8418 15.226V22.1469H15.8192V27.0904H18.7853V22.1469H21.7514V18.1921Z" fill="#FAFAFA"/>
</svg>
