<svg width="35" height="35" viewBox="0 0 35 35" fill="none" xmlns="http://www.w3.org/2000/svg">
<circle cx="17.5" cy="17.5" r="17.5" fill="#211E1A"/>
<path d="M17.5005 9.34375C18.1495 9.34375 18.7719 9.60156 19.2308 10.0605C19.6897 10.5194 19.9475 11.1418 19.9475 11.7908C19.9475 12.4398 19.6897 13.0622 19.2308 13.5211C18.7719 13.98 18.1495 14.2378 17.5005 14.2378C16.8515 14.2378 16.2291 13.98 15.7702 13.5211C15.3113 13.0622 15.0535 12.4398 15.0535 11.7908C15.0535 11.1418 15.3113 10.5194 15.7702 10.0605C16.2291 9.60156 16.8515 9.34375 17.5005 9.34375ZM16.6848 25.6573H14.2378V20.7632H12.6064V15.0535H22.3946V20.7632H20.7632V25.6573H18.3162V22.3946H16.6848V25.6573Z" fill="#FAFAFA"/>
</svg>
