<svg width="150" height="150" viewBox="0 0 150 150" fill="none" xmlns="http://www.w3.org/2000/svg">
<circle cx="75" cy="75" r="75" fill="#8E8174"/>
<path d="M63.5615 39.83C63.5615 35.1267 67.3327 31.3555 72.0361 31.3555C76.7395 31.3555 80.5107 35.1267 80.5107 39.83C80.5107 44.5334 76.7395 48.3046 72.0361 48.3046C67.3327 48.3046 63.5615 44.5334 63.5615 39.83ZM93.2225 77.9656C93.2033 75.2512 92.3908 72.6017 90.8851 70.3431C89.3794 68.0846 87.2461 66.3155 84.7479 65.2538C84.7479 58.2199 79.07 52.5419 72.0361 52.5419C65.0022 52.5419 59.3242 58.2199 59.3242 65.2538V94.9148H67.7988V116.101H80.5107V94.9148H93.2225V77.9656Z" fill="#FAFAFA"/>
</svg>
