<svg width="35" height="35" viewBox="0 0 35 35" fill="none" xmlns="http://www.w3.org/2000/svg">
<circle cx="17.5" cy="17.5" r="17.5" fill="#5E544B"/>
<circle cx="17.5" cy="17.5" r="17.5" fill="#5E544B"/>
<path d="M16.9068 7.76172C17.6344 7.76172 18.3323 8.05078 18.8468 8.56531C19.3614 9.07985 19.6504 9.7777 19.6504 10.5054C19.6504 11.233 19.3614 11.9309 18.8468 12.4454C18.3323 12.9599 17.6344 13.249 16.9068 13.249C16.1791 13.249 15.4813 12.9599 14.9667 12.4454C14.4522 11.9309 14.1631 11.233 14.1631 10.5054C14.1631 9.7777 14.4522 9.07985 14.9667 8.56531C15.4813 8.05078 16.1791 7.76172 16.9068 7.76172ZM24.2232 22.3945L22.3941 17.4193C22.074 16.5139 21.7905 15.7274 20.565 15.0781C19.3029 14.4379 18.3883 14.1636 16.9068 14.1636C15.4161 14.1636 14.5107 14.4379 13.2486 15.0781C12.0231 15.7274 11.7396 16.5139 11.4195 17.4193L9.59039 22.3945C9.29774 23.6291 11.7487 24.626 13.3492 25.3119V23.309C13.3492 22.4402 14.1357 21.8275 15.7087 21.4525C15.855 21.4159 15.9922 21.3976 16.102 21.3793C15.6081 20.6294 15.4069 19.9618 15.3886 19.9069L17.0074 19.3582C17.0165 19.3765 17.4829 20.8123 18.5895 21.5348C18.7816 21.5988 18.9737 21.672 19.1566 21.7543C19.8608 22.0652 20.2815 22.4677 20.4186 22.9524C19.1931 23.4371 18.0225 23.684 16.9068 23.684L15.9922 23.5925V25.9978L16.9068 26.0527C18.1597 26.0527 19.3486 25.7966 20.4644 25.3119C22.0648 24.626 24.4518 23.4279 24.2232 22.3945ZM20.1077 21.4799C19.7439 21.4799 19.3949 21.3354 19.1377 21.0781C18.8804 20.8209 18.7359 20.4719 18.7359 20.1081C18.7359 19.7443 18.8804 19.3954 19.1377 19.1381C19.3949 18.8808 19.7439 18.7363 20.1077 18.7363C20.4715 18.7363 20.8205 18.8808 21.0777 19.1381C21.335 19.3954 21.4795 19.7443 21.4795 20.1081C21.4795 20.4719 21.335 20.8209 21.0777 21.0781C20.8205 21.3354 20.4715 21.4799 20.1077 21.4799Z" fill="#FAFAFA"/>
</svg>
