<svg width="150" height="150" viewBox="0 0 150 150" fill="none" xmlns="http://www.w3.org/2000/svg">
<circle cx="75" cy="75" r="75" fill="#3C352F"/>
<path d="M56.0897 27.9658C58.5058 27.9658 60.8231 28.9256 62.5315 30.6341C64.24 32.3426 65.1999 34.6598 65.1999 37.076C65.1999 39.4922 64.24 41.8094 62.5315 43.5179C60.8231 45.2263 58.5058 46.1862 56.0897 46.1862C53.6735 46.1862 51.3563 45.2263 49.6478 43.5179C47.9393 41.8094 46.9795 39.4922 46.9795 37.076C46.9795 34.6598 47.9393 32.3426 49.6478 30.6341C51.3563 28.9256 53.6735 27.9658 56.0897 27.9658ZM49.2571 119.068V91.737H35.5918L47.435 57.1184C48.8015 53.4743 51.9901 50.7412 56.0897 50.7412C60.1893 50.7412 63.8333 53.4743 64.7443 57.1184L76.5876 91.737H62.9223V119.068H49.2571ZM87.9753 73.5167C87.9753 71.1005 88.9351 68.7833 90.6436 67.0748C92.3521 65.3663 94.6693 64.4065 97.0854 64.4065C99.5016 64.4065 101.819 65.3663 103.527 67.0748C105.236 68.7833 106.196 71.1005 106.196 73.5167C106.196 75.9328 105.236 78.25 103.527 79.9585C101.819 81.667 99.5016 82.6268 97.0854 82.6268C94.6693 82.6268 92.3521 81.667 90.6436 79.9585C88.9351 78.25 87.9753 75.9328 87.9753 73.5167ZM83.4202 87.1819H110.751V105.402H103.918V119.068H90.2528V105.402H83.4202V87.1819Z" fill="#FAFAFA"/>
</svg>
