<svg width="100" height="100" viewBox="0 0 100 100" fill="none" xmlns="http://www.w3.org/2000/svg">
<circle cx="50" cy="50" r="50" fill="#3C352F"/>
<path d="M37.3928 18.6436C39.0036 18.6436 40.5484 19.2834 41.6874 20.4224C42.8264 21.5614 43.4662 23.1062 43.4662 24.717C43.4662 26.3278 42.8264 27.8726 41.6874 29.0116C40.5484 30.1506 39.0036 30.7904 37.3928 30.7904C35.782 30.7904 34.2372 30.1506 33.0982 29.0116C31.9592 27.8726 31.3193 26.3278 31.3193 24.717C31.3193 23.1062 31.9592 21.5614 33.0982 20.4224C34.2372 19.2834 35.782 18.6436 37.3928 18.6436ZM32.8377 79.378V61.1577H23.7275L31.623 38.0786C32.534 35.6492 34.6597 33.8272 37.3928 33.8272C40.1258 33.8272 42.5552 35.6492 43.1626 38.0786L51.0581 61.1577H41.9479V79.378H32.8377ZM58.6499 49.0108C58.6499 47.4 59.2897 45.8552 60.4287 44.7162C61.5677 43.5772 63.1125 42.9373 64.7233 42.9373C66.3341 42.9373 67.8789 43.5772 69.0179 44.7162C70.1569 45.8552 70.7968 47.4 70.7968 49.0108C70.7968 50.6216 70.1569 52.1664 69.0179 53.3054C67.8789 54.4444 66.3341 55.0842 64.7233 55.0842C63.1125 55.0842 61.5677 54.4444 60.4287 53.3054C59.2897 52.1664 58.6499 50.6216 58.6499 49.0108ZM55.6131 58.121H73.8335V70.2678H69.2784V79.378H60.1682V70.2678H55.6131V58.121Z" fill="#FAFAFA"/>
</svg>
