<svg width="100" height="100" viewBox="0 0 100 100" fill="none" xmlns="http://www.w3.org/2000/svg">
<circle cx="50" cy="50" r="50" fill="#8E8174"/>
<path d="M42.3737 26.553C42.3737 23.4174 44.8878 20.9033 48.0234 20.9033C51.159 20.9033 53.6731 23.4174 53.6731 26.553C53.6731 29.6886 51.159 32.2028 48.0234 32.2028C44.8878 32.2028 42.3737 29.6886 42.3737 26.553ZM62.1477 51.9768C62.1349 50.1672 61.5932 48.4008 60.5894 46.8951C59.5856 45.3894 58.1634 44.21 56.498 43.5022C56.498 38.8129 52.7127 35.0276 48.0234 35.0276C43.3341 35.0276 39.5488 38.8129 39.5488 43.5022V63.2762H45.1985V77.4005H53.6731V63.2762H62.1477V51.9768Z" fill="#FAFAFA"/>
</svg>
