<svg width="35" height="35" viewBox="0 0 35 35" fill="none" xmlns="http://www.w3.org/2000/svg">
<circle cx="17.5" cy="17.5" r="17.5" fill="#B09F8F"/>
<path d="M15.6704 27.2382V21.7509H12.9268L16.1963 13.52H18.8256L22.0722 21.7509H19.3286V27.2382H15.6704ZM17.4995 12.6055C16.9965 12.6055 16.5657 12.4262 16.2072 12.0677C15.8487 11.7092 15.6698 11.2788 15.6704 10.7764C15.6704 10.2734 15.8497 9.84261 16.2082 9.48411C16.5667 9.1256 16.9971 8.94666 17.4995 8.94727C18.0025 8.94727 18.4333 9.12652 18.7918 9.48502C19.1503 9.84352 19.3292 10.274 19.3286 10.7764C19.3286 11.2794 19.1493 11.7101 18.7908 12.0686C18.4323 12.4271 18.0019 12.6061 17.4995 12.6055Z" fill="#FAFAFA"/>
</svg>
